{"title":"Besharam (2013) New HD SCAMRIP Xvid [1CD] IcTv Hindi","uid":8988378,"size":733219036,"categoryP":"video","categoryS":"movies","magnet":"?xt=urn:btih:934756e76bcb26d0a734ce1347a55d29dc0149e4&amp;dn=Besharam+%282013%29+New+HD+SCAMRIP+Xvid+%5B1CD%5D+IcTv+Hindi&amp;tr=udp%3A%2F%2Ftracker.openbittorrent.com%3A80&amp;tr=udp%3A%2F%2Fopen.demonii.com%3A1337&amp;tr=udp%3A%2F%2Ftracker.coppersurfer.tk%3A6969&amp;tr=udp%3A%2F%2Fexodus.desync.com%3A6969","seeders":1,"leechers":0,"uploader":"SJonam","files":1,"time":1380731746,"description":" &lt;a href=&quot;http://s18.postimg.org/q1xcnecvd/9999999999.jpg&quot; rel=&quot;nofollow&quot; target=&quot;_NEW&quot;&gt;http://s18.postimg.org/q1xcnecvd/9999999999.jpg&lt;/a&gt; &lt;a href=&quot;\nhttp://i.imgur.com/lJOgAo2.png&quot; rel=&quot;nofollow&quot; target=&quot;_NEW&quot;&gt;\nhttp://i.imgur.com/lJOgAo2.png&lt;/a&gt; &lt;a href=&quot;\nhttp://img405.imageshack.us/img405/3430/4f84.jpg&quot; rel=&quot;nofollow&quot; target=&quot;_NEW&quot;&gt;\nhttp://img405.imageshack.us/img405/3430/4f84.jpg&lt;/a&gt; &lt;a href=&quot;\nhttp://t1.someimage.com/ggGoSzv.jpg&quot; rel=&quot;nofollow&quot; target=&quot;_NEW&quot;&gt;\nhttp://t1.someimage.com/ggGoSzv.jpg&lt;/a&gt; &lt;a href=&quot;\nhttp://t1.someimage.com/pnLt2Z8.jpg&quot; rel=&quot;nofollow&quot; target=&quot;_NEW&quot;&gt;\nhttp://t1.someimage.com/pnLt2Z8.jpg&lt;/a&gt; &lt;a href=&quot;\nhttp://t1.someimage.com/dOnPFtn.jpg&quot; rel=&quot;nofollow&quot; target=&quot;_NEW&quot;&gt;\nhttp://t1.someimage.com/dOnPFtn.jpg&lt;/a&gt; &lt;a href=&quot;\nhttp://t1.someimage.com/pV07tRV.jpg&quot; rel=&quot;nofollow&quot; target=&quot;_NEW&quot;&gt;\nhttp://t1.someimage.com/pV07tRV.jpg&lt;/a&gt; &lt;a href=&quot;\nhttp://t1.someimage.com/DUnVc9T.jpg&quot; rel=&quot;nofollow&quot; target=&quot;_NEW&quot;&gt;\nhttp://t1.someimage.com/DUnVc9T.jpg&lt;/a&gt;\n\n\nMedia Info - \nGeneral\nComplete name : Besharam (2013) New Source Final SCAM RIP - Xvid - [1-CD] - Team IcTv Exclusive.avi\nFormat : AVI\nFormat/Info : Audio Video Interleave\nFile size : 699 MiB\nDuration : 2h 6mn\nOverall bit rate mode : Variable\nOverall bit rate : 776 Kbps\n\nVideo\nFormat : MPEG-4 Visual\nFormat profile : Advanced Simple@L5\nFormat settings, BVOP : 2\nFormat settings, QPel : No\nFormat settings, GMC : No warppoints\nFormat settings, Matrix : Default (H.263)\nCodec ID : XVID\nCodec ID/Hint : XviD\nDuration : 2h 6mn\nBit rate : 638 Kbps\nWidth : 640 pixels\nHeight : 272 pixels\nDisplay aspect ratio : 2.35:1\nFrame rate : 25.000 fps\nColor space : YUV\nChroma subsampling : 4:2:0\nBit depth : 8 bits\nScan type : Progressive\nCompression mode : Lossy\nBits/(Pixel*Frame) : 0.147\nStream size : 575 MiB (82%)\nWriting library : XviD 1.2.1 (UTC 2008-12-04)\n\nAudio\nFormat : MPEG Audio\nFormat version : Version 1\nFormat profile : Layer 3\nMode : Joint stereo\nMode extension : MS Stereo\nCodec ID : 55\nCodec ID/Hint : MP3\nDuration : 2h 6mn\nBit rate mode : Variable\nBit rate : 128 Kbps\nChannel(s) : 2 channels\nSampling rate : 48.0 KHz\nCompression mode : Lossy\nStream size : 112 MiB (16%)\nAlignment : Aligned on interleaves\nInterleave, duration : 24 ms (0.60 video frame)\nInterleave, preload duration : 200 ms\nTitle : VTS_01_1 Tc0 L2 2ch 48 128 DELAY 0ms\nWriting library : LAME3.99r\nEncoding settings : -m j -V 4 -q 2 -lowpass 17 --abr 128\n\nSample - http://www.multiupload.nl/S4Z90YNY6B\n\n\nRipper : Lottery\n\nSeeding 24x7... Extreme Seeding...\n\n\nEnjoy!\n","torrent":{"xt":"urn:btih:934756e76bcb26d0a734ce1347a55d29dc0149e4","amp;dn":"Besharam+%282013%29+New+HD+SCAMRIP+Xvid+%5B1CD%5D+IcTv+Hindi","amp;tr":["udp%3A%2F%2Ftracker.openbittorrent.com%3A80","udp%3A%2F%2Fopen.demonii.com%3A1337","udp%3A%2F%2Ftracker.coppersurfer.tk%3A6969","udp%3A%2F%2Fexodus.desync.com%3A6969"],"infoHash":"934756e76bcb26d0a734ce1347a55d29dc0149e4","infoHashBuffer":{"type":"Buffer","data":[147,71,86,231,107,203,38,208,167,52,206,19,71,165,93,41,220,1,73,228]},"announce":[],"urlList":[]}}